<?xml version="1.0" standalone="no"?>
<!DOCTYPE svg PUBLIC "-//W3C//DTD SVG 20010904//EN"
 "http://www.w3.org/TR/2001/REC-SVG-20010904/DTD/svg10.dtd">
<svg version="1.0" xmlns="http://www.w3.org/2000/svg"
 width="120.000000pt" height="120.000000pt" viewBox="0 0 120.000000 120.000000"
 preserveAspectRatio="xMidYMid meet">

<g transform="translate(0.000000,120.000000) scale(0.100000,-0.100000)"
fill="#000000" stroke="none">
<path d="M483 1085 c-187 -51 -334 -202 -372 -383 -45 -217 70 -449 272 -546
335 -162 717 77 717 449 0 225 -161 428 -381 480 -79 18 -167 18 -236 0z m237
-93 c0 -5 -20 -64 -45 -132 -25 -68 -45 -132 -45 -142 0 -16 10 -18 93 -19
146 -1 146 7 11 -164 -232 -296 -265 -336 -274 -330 -4 3 17 69 47 148 31 78
58 154 60 170 l5 27 -105 0 c-58 0 -108 4 -111 9 -7 11 335 441 351 441 7 0
13 -4 13 -8z m-90 -8 c0 -3 -70 -94 -155 -201 -199 -252 -203 -273 -43 -273
48 0 88 -3 88 -7 0 -11 -87 -243 -93 -250 -3 -3 -26 9 -52 27 -181 125 -224
384 -91 558 68 88 189 151 294 152 28 0 52 -3 52 -6z m202 -63 c195 -140 222
-407 60 -582 -77 -83 -157 -121 -268 -127 -59 -3 -84 -1 -84 7 0 6 73 104 163
217 89 113 168 216 174 229 28 53 -9 75 -126 75 l-79 0 39 107 c22 59 39 108
39 110 0 13 35 -3 82 -36z"/>
</g>
</svg>
